<svg xmlns="http://www.w3.org/2000/svg" viewBox="0 0 800 600"><rect width="800" height="600" fill="#f2f0ec"/><rect x="70" y="70" width="300" height="200" rx="22" fill="#fff"/><circle cx="135" cy="140" r="32" fill="#ff5a1f"/><circle cx="210" cy="140" r="32" fill="#ff8a4c"/><circle cx="285" cy="140" r="32" fill="#0a0a0a"/><rect x="100" y="205" width="80" height="12" rx="6" fill="#0a0a0a"/><rect x="200" y="205" width="140" height="12" rx="6" fill="#c9c4bb"/><rect x="400" y="70" width="330" height="200" rx="22" fill="#0a0a0a"/><text x="430" y="190" font-family="Arial, sans-serif" font-weight="800" font-size="92" fill="#fff">Aa</text><rect x="585" y="120" width="115" height="14" rx="7" fill="#ff5a1f"/><rect x="585" y="150" width="90" height="10" rx="5" fill="#666"/><rect x="585" y="172" width="100" height="10" rx="5" fill="#666"/><rect x="70" y="300" width="660" height="230" rx="22" fill="#fff"/><rect x="110" y="345" width="190" height="56" rx="28" fill="#ff5a1f"/><circle cx="138" cy="373" r="22" fill="#fff"/><path d="M130 373h16m-6-6 6 6-6 6" stroke="#ff5a1f" stroke-width="3" fill="none" stroke-linecap="round"/><rect x="320" y="345" width="160" height="56" rx="28" fill="#0a0a0a"/><rect x="500" y="345" width="190" height="56" rx="14" fill="#f2f0ec"/><rect x="110" y="440" width="64" height="34" rx="17" fill="#ff5a1f"/><circle cx="156" cy="457" r="13" fill="#fff"/><rect x="200" y="440" width="34" height="34" rx="9" fill="#0a0a0a"/><path d="M209 457l6 6 11-12" stroke="#fff" stroke-width="3" fill="none" stroke-linecap="round"/><rect x="260" y="448" width="240" height="18" rx="9" fill="#ece8e1"/><rect x="260" y="448" width="150" height="18" rx="9" fill="#ff5a1f"/></svg>
